<?xml version="1.0" standalone="no"?>
<!DOCTYPE svg PUBLIC "-//W3C//DTD SVG 20010904//EN"
 "http://www.w3.org/TR/2001/REC-SVG-20010904/DTD/svg10.dtd">
<svg version="1.0" xmlns="http://www.w3.org/2000/svg"
 width="300.000000pt" height="191.000000pt" viewBox="0 0 300.000000 191.000000"
 preserveAspectRatio="xMidYMid meet">
<metadata>
Created by potrace 1.16, written by Peter Selinger 2001-2019
</metadata>
<g transform="translate(0.000000,191.000000) scale(0.100000,-0.100000)"
fill="#000000" stroke="none">
<path d="M1050 1415 l0 -435 435 0 435 0 0 436 c0 377 -2 435 -15 431 -8 -3
-104 -67 -214 -142 l-200 -136 -210 141 c-116 77 -215 140 -221 140 -7 0 -10
-147 -10 -435z"/>
<path d="M116 391 c-31 -159 -56 -294 -56 -300 0 -7 20 -11 50 -11 28 0 50 3
50 8 0 14 50 285 53 289 2 1 35 -69 73 -157 38 -88 75 -160 82 -160 6 0 12 4
12 9 0 6 31 78 69 162 55 121 71 148 75 128 3 -13 12 -71 21 -129 25 -164 18
-150 76 -150 48 0 51 1 46 23 -3 12 -27 147 -53 300 -27 152 -52 276 -57 274
-5 -1 -50 -93 -100 -203 l-91 -201 -90 203 c-49 112 -92 204 -96 204 -4 0 -33
-130 -64 -289z"/>
<path d="M951 628 c-10 -24 -71 -155 -135 -292 -64 -136 -116 -250 -116 -252
0 -2 24 -4 53 -4 l53 0 28 65 28 65 113 0 112 0 28 -65 27 -65 49 0 c32 0 49
4 49 13 0 20 -253 577 -262 577 -5 0 -17 -19 -27 -42z"/>
<path d="M2695 636 c-69 -30 -108 -112 -85 -180 14 -45 55 -79 139 -117 75
-34 91 -50 91 -94 0 -70 -96 -103 -139 -49 -12 15 -21 37 -21 50 0 28 2 27
-56 13 -51 -13 -54 -25 -21 -89 83 -166 337 -106 337 80 0 87 -45 139 -154
181 -67 26 -93 56 -76 89 25 46 96 48 125 4 l16 -25 37 22 c20 12 39 24 41 25
10 8 -56 78 -85 90 -42 17 -109 17 -149 0z"/>
<path d="M1300 360 l0 -280 45 0 45 0 0 115 c0 64 4 115 9 115 5 0 51 -52 102
-115 l93 -115 58 0 c33 0 58 4 58 10 0 6 -54 75 -119 154 l-119 143 119 119
c65 65 119 122 119 126 0 5 -26 8 -58 8 l-59 0 -101 -102 -102 -103 0 103 0
102 -45 0 -45 0 0 -280z"/>
<path d="M1770 360 l0 -280 155 0 155 0 0 50 0 50 -105 0 -105 0 0 80 0 80
105 0 105 0 0 45 0 45 -105 0 -105 0 0 60 0 60 105 0 105 0 0 45 0 45 -155 0
-155 0 0 -280z"/>
<path d="M2172 363 l3 -278 47 -3 47 -3 3 112 3 112 78 -111 78 -112 55 0 c30
0 54 4 54 9 0 4 -35 57 -79 117 l-79 109 29 14 c17 7 39 28 51 44 29 40 36
132 15 173 -37 71 -92 94 -225 94 l-82 0 2 -277z m171 176 c37 -10 57 -37 57
-74 0 -28 -45 -65 -87 -71 l-43 -7 0 82 c0 90 0 91 73 70z"/>
</g>
</svg>
